<svg width="166" height="147" viewBox="0 0 166 147" fill="none" xmlns="http://www.w3.org/2000/svg">
<path opacity="0.2" d="M93.3631 74.3989C91.6622 77.8238 89.5027 81.0238 86.962 83.8844C84.3998 86.6957 81.5293 89.1696 78.4332 91.2351C75.4331 93.3029 72.2595 95.0129 68.9809 96.3283C65.7077 97.6584 62.3218 98.3965 58.9778 98.5087C57.2926 98.5577 55.6456 98.3466 54.0878 97.8819C52.4602 97.4226 51.002 96.5704 49.8168 95.3859C48.51 94.0459 47.7335 92.2102 47.6109 90.1711C47.5377 88.0736 48.0365 85.909 49.0498 83.9282C49.5042 82.9959 50.0253 82.0936 50.6077 81.2305C51.1867 80.4204 51.8012 79.6371 52.4489 78.8837C53.0704 78.1576 53.7304 77.4687 54.4247 76.8211L55.4737 75.7878L56.5186 74.8918C59.2106 72.6558 62.065 70.6731 65.0416 68.9717C67.9424 67.2648 70.9987 65.9705 74.1194 65.1273C77.0795 64.3303 80.0709 63.9801 83.0002 64.0876L84.0597 64.1111L85.0927 64.239C85.7711 64.3174 86.4781 64.3977 87.1301 64.4929C88.4443 64.7167 89.7365 65.0149 91.0014 65.3864C91.7329 65.6059 92.4502 65.8682 93.1674 66.1304C93.3954 65.3588 93.5541 64.645 93.776 63.8167C94.4816 60.7509 94.8042 57.6584 94.7353 54.6223C94.6336 51.7222 94.108 48.9211 93.1766 46.3154C91.2436 41.4196 88.2117 37.2203 84.3086 34.0332C80.6487 31.0498 76.5344 28.6884 72.0843 27.0171C68.0161 25.471 63.7866 24.2977 59.4372 23.5087C55.6375 22.7721 51.7577 22.315 47.8236 22.1404C42.0615 21.8522 36.1539 22.5821 30.335 24.3013C26.1647 25.6179 23.8669 26.8832 23.8668 26.6208C24.3482 26.1862 24.8839 25.8305 25.4516 25.5684C27.0095 24.7055 28.6106 23.9621 30.241 23.3449C36.1375 21.2233 42.1924 20.1855 48.1226 20.2802C52.1745 20.2995 56.1788 20.6191 60.1069 21.2368C64.613 21.9027 69.005 22.9703 73.2389 24.4289C77.9556 26.0451 82.3312 28.4022 86.2353 31.4298C90.5501 34.7627 93.9263 39.2288 96.1018 44.4812C97.2062 47.3702 97.8523 50.4904 98.0173 53.7315C98.1533 57.1231 97.8388 60.5879 97.0828 64.0275C96.8376 65.2138 96.5304 66.3942 96.1628 67.5631C98.7873 68.8332 101.262 70.3706 103.558 72.1568C109.619 76.9704 114.837 82.8199 119.042 89.5162C122.126 94.3408 124.796 99.4809 127.027 104.887C129.546 110.849 131.404 117.179 132.57 123.768L132.851 125.85L133.596 123.84C134.45 121.693 135.38 119.652 136.284 117.715C137.926 114.305 139.795 110.996 141.876 107.817C145.441 102.378 148.215 99.4955 148.565 99.7698C148.916 100.044 146.914 103.436 144.024 108.916C142.597 111.685 140.933 114.975 139.326 118.707C138.51 120.581 137.704 122.55 136.934 124.596C136.555 125.632 136.168 126.68 135.802 127.742C135.615 128.279 135.478 128.763 135.157 129.541C134.759 130.565 134.072 131.472 133.199 132.123C132.726 132.461 132.206 132.702 131.671 132.83C131.252 132.923 130.831 132.959 130.418 132.936C129.813 132.886 129.224 132.765 128.662 132.577C127.755 132.308 126.865 132.015 125.987 131.748C124.236 131.183 122.562 130.616 120.964 130.068C117.802 128.924 115.055 127.783 112.695 126.732C108.131 124.666 105.447 122.974 105.702 122.448C105.956 121.922 109.098 122.615 114.011 123.974L122.583 126.45C124.194 126.92 125.879 127.406 127.638 127.907C128.514 128.155 129.411 128.417 130.307 128.679C130.331 128.688 130.352 128.702 130.368 128.721C130.107 127.966 129.773 126.88 129.357 125.301C127.679 119.183 125.603 113.248 123.142 107.535C120.864 102.408 118.213 97.5165 115.209 92.8996C111.161 86.5758 106.183 81.0388 100.427 76.4576C98.501 74.973 96.4448 73.6687 94.2774 72.5564C93.9964 73.1868 93.7154 73.8172 93.414 74.4337L93.3631 74.3989ZM88.8553 70.3242C87.7414 69.9772 86.6022 69.6958 85.4424 69.4812C84.8658 69.385 84.2647 69.3245 83.6616 69.2452L82.7631 69.1391L81.8361 69.1185C79.3239 68.9954 76.7525 69.2804 74.2082 69.964C71.5128 70.6727 68.8707 71.7728 66.361 73.2313C63.676 74.7296 61.1001 76.4871 58.6711 78.4781L57.7626 79.2399L56.9152 80.0435C56.3533 80.5703 55.8147 81.1254 55.302 81.7062C54.7684 82.2691 54.3957 82.8369 53.8804 83.4823C53.475 84.0729 53.1126 84.6916 52.7969 85.3318C52.1622 86.3921 51.849 87.5954 51.9061 88.7545C51.9631 89.9135 52.3872 90.9632 53.1124 91.7402C54.9479 93.3529 57.3559 94.1496 59.924 93.9938C62.7792 93.9252 65.6747 93.3268 68.4807 92.2254C71.437 91.072 74.3027 89.563 77.0163 87.7311C79.7684 85.9521 82.3253 83.8051 84.6122 81.353C86.8494 78.8637 88.7541 76.0737 90.2577 73.0836C90.5937 72.4383 90.9094 71.7791 91.2067 71.1248C90.4283 70.8208 89.652 70.5357 88.8105 70.2586" fill="#5B1727"/>
</svg>
