<svg width="70" height="73" viewBox="0 0 70 73" fill="none" xmlns="http://www.w3.org/2000/svg">
<rect y="0.805908" width="70" height="70" rx="10" fill="#FFEAE5"/>
<g filter="url(#filter0_f_62_930)">
<rect x="22" y="35.8059" width="27" height="27" rx="10" fill="#FFC350" fill-opacity="0.25"/>
</g>
<g clip-path="url(#clip0_62_930)">
<path d="M34.4349 15.9351L16.5233 24.5821C16.2987 24.6906 16.156 24.9179 16.156 25.1673V46.4445C16.156 46.6939 16.2987 46.9212 16.5233 47.0296L34.4349 55.6767C34.7919 55.849 35.208 55.849 35.5649 55.6767L53.4766 47.0296C53.7012 46.9212 53.8438 46.6939 53.8438 46.4445V25.1673C53.8438 24.9179 53.7011 24.6906 53.4766 24.5821L35.5649 15.9351C35.208 15.7628 34.7919 15.7628 34.4349 15.9351Z" fill="#FFE17D"/>
<path d="M16.2641 24.8116C16.1958 24.9156 16.156 25.0381 16.156 25.1673V46.4445C16.156 46.6939 16.2987 46.9213 16.5233 47.0297L34.4349 55.6766C34.6133 55.7628 34.8066 55.8059 34.9999 55.8059V33.8566L16.2641 24.8116Z" fill="#FFC350"/>
<path d="M53.7359 24.8116C53.8041 24.9156 53.8439 25.0381 53.8439 25.1673V46.4445C53.8439 46.6939 53.7012 46.9212 53.4766 47.0297L35.565 55.6766C35.3866 55.7628 35.1933 55.8059 35 55.8059V33.8566L53.7359 24.8116Z" fill="#FFD164"/>
<path d="M21.5162 45.3103C21.4217 45.3103 21.3252 45.2894 21.2345 45.2457L18.4691 43.9106C18.1455 43.7545 18.0103 43.3661 18.1664 43.0432C18.3219 42.7202 18.7115 42.5857 19.0339 42.7405L21.7993 44.0757C22.1228 44.2317 22.258 44.6201 22.1019 44.9431C21.9903 45.1752 21.758 45.3103 21.5162 45.3103Z" fill="#FFE17D"/>
<path d="M24.0615 43.6536C23.967 43.6536 23.8705 43.6326 23.7798 43.5889L18.4729 41.0272C18.1499 40.8711 18.0141 40.4827 18.1702 40.1597C18.3257 39.8374 18.7159 39.7022 19.0377 39.8571L24.3445 42.4188C24.6674 42.5749 24.8032 42.9633 24.6471 43.2862C24.5356 43.5183 24.3033 43.6536 24.0615 43.6536Z" fill="#FFF6D8"/>
<path d="M47.3866 27.8663L28.5849 18.7832L23.6287 21.1855L42.4726 30.2827L47.3866 27.8663Z" fill="#F29173"/>
<path d="M42.4727 30.2827V37.3301C42.4727 37.5696 42.723 37.7268 42.9388 37.6227L47.0195 35.6527C47.2441 35.5443 47.3867 35.317 47.3867 35.0676V27.8663L42.4727 30.2827Z" fill="#E6646E"/>
</g>
<defs>
<filter id="filter0_f_62_930" x="12" y="25.8059" width="47" height="47" filterUnits="userSpaceOnUse" color-interpolation-filters="sRGB">
<feFlood flood-opacity="0" result="BackgroundImageFix"/>
<feBlend mode="normal" in="SourceGraphic" in2="BackgroundImageFix" result="shape"/>
<feGaussianBlur stdDeviation="5" result="effect1_foregroundBlur_62_930"/>
</filter>
<clipPath id="clip0_62_930">
<rect width="40" height="40" fill="white" transform="translate(15 15.8059)"/>
</clipPath>
</defs>
</svg>
