<svg width="70" height="78" viewBox="0 0 70 78" fill="none" xmlns="http://www.w3.org/2000/svg">
<rect y="0.805908" width="70" height="70" rx="10" fill="#FFEAE5"/>
<g filter="url(#filter0_f_62_946)">
<rect x="22" y="35.8059" width="27" height="27" rx="10" fill="#FFEAE5"/>
</g>
<g clip-path="url(#clip0_62_946)">
<path d="M46.7676 56.1209H15V25.8846H55V47.8236L46.7676 56.1209Z" fill="white"/>
<path d="M15 25.8846H55V30.924H15V25.8846Z" fill="#DCE9FF"/>
<path d="M22.5 20.8453H20V17.0658C20 16.37 20.5597 15.8059 21.25 15.8059C21.9403 15.8059 22.5 16.37 22.5 17.0658V20.8453Z" fill="#FFEAE5"/>
<path d="M50 20.8453H47.5V17.0658C47.5 16.37 48.0597 15.8059 48.75 15.8059C49.4403 15.8059 50 16.37 50 17.0658V20.8453Z" fill="#FFEAE5"/>
<path d="M46.7676 47.8236V56.1209L55 47.8236H46.7676Z" fill="#DBE6F8"/>
<path d="M32.5926 47.7305L26.4452 42.7741C25.9059 42.3392 25.8183 41.5463 26.2502 41.0028C26.6817 40.4593 27.4684 40.371 28.0077 40.8063L32.4077 44.3539L41.9826 34.7036C42.4709 34.2118 43.2622 34.2118 43.7502 34.7036C44.2381 35.1954 44.2381 35.993 43.7502 36.4851L32.5926 47.7305Z" fill="#0AC1A7"/>
<path d="M55 28.4043H15V22.1051C15 20.7136 16.1194 19.5854 17.5 19.5854H52.5C53.8806 19.5854 55 20.7136 55 22.1051V28.4043Z" fill="#F29173"/>
</g>
<defs>
<filter id="filter0_f_62_946" x="7" y="20.8059" width="57" height="57" filterUnits="userSpaceOnUse" color-interpolation-filters="sRGB">
<feFlood flood-opacity="0" result="BackgroundImageFix"/>
<feBlend mode="normal" in="SourceGraphic" in2="BackgroundImageFix" result="shape"/>
<feGaussianBlur stdDeviation="7.5" result="effect1_foregroundBlur_62_946"/>
</filter>
<clipPath id="clip0_62_946">
<rect width="40" height="40.315" fill="white" transform="translate(15 15.8059)"/>
</clipPath>
</defs>
</svg>
