<svg width="1440" height="854" viewBox="0 0 1440 854" fill="none" xmlns="http://www.w3.org/2000/svg">
<path d="M1267.31 112.65C1242.28 100.268 1214.43 96.2206 1187.28 101.02C1160.13 105.82 1134.89 119.251 1114.77 139.616C1094.65 159.981 1080.54 186.366 1074.22 215.437C1067.9 244.507 1069.66 274.959 1079.28 302.944C1080.89 307.637 1080.72 312.834 1078.8 317.391C1076.89 321.947 1073.38 325.49 1069.06 327.241C1064.73 328.991 1059.95 328.805 1055.75 326.723C1051.56 324.642 1048.29 320.836 1046.68 316.142C1038.68 292.939 1034.98 268.251 1035.78 243.491C1036.59 218.731 1041.88 194.388 1051.37 171.854C1091.18 76.9391 1194.32 35.0457 1281.73 78.2792C1369.14 121.513 1407.72 233.497 1367.91 328.412C1358.48 350.972 1345.04 371.288 1328.36 388.198C1311.69 405.107 1292.1 418.278 1270.73 426.954C1266.41 428.714 1261.62 428.539 1257.42 426.468C1253.22 424.396 1249.95 420.597 1248.33 415.907C1246.71 411.217 1246.87 406.02 1248.78 401.459C1250.69 396.898 1254.18 393.347 1258.5 391.587C1284.26 381.097 1306.57 362.553 1322.63 338.297C1338.68 314.042 1347.75 285.163 1348.69 255.312C1349.64 225.46 1342.41 195.975 1327.92 170.583C1313.44 145.191 1292.34 125.03 1267.31 112.65V112.65Z" fill="url(#paint0_linear_679_571)" fill-opacity="0.5"/>
<path d="M1224.06 215.761C1215.66 211.609 1206.09 211.248 1197.45 214.758C1188.81 218.267 1181.81 225.36 1177.98 234.476C1174.16 243.592 1173.83 253.983 1177.06 263.365C1180.29 272.747 1186.83 280.35 1195.22 284.503C1203.62 288.655 1213.19 289.016 1221.83 285.506C1230.47 281.996 1237.47 274.903 1241.29 265.788C1245.12 256.672 1245.45 246.28 1242.22 236.898C1238.98 227.516 1232.45 219.913 1224.06 215.761Z" fill="url(#paint1_linear_679_571)" fill-opacity="0.5"/>
<path d="M1146.33 218.817C1151.07 207.511 1158.31 197.648 1167.4 190.103C1176.49 182.558 1187.15 177.564 1198.44 175.564C1209.73 173.563 1221.3 174.617 1232.13 178.633C1242.96 182.649 1252.71 189.502 1260.51 198.586C1268.32 207.67 1273.94 218.704 1276.88 230.711C1279.82 242.717 1279.98 255.325 1277.36 267.418C1274.74 279.511 1269.41 290.715 1261.85 300.039C1254.29 309.362 1244.73 316.516 1234.01 320.867C1231.87 321.736 1229.91 323.055 1228.24 324.747C1226.57 326.44 1225.22 328.473 1224.27 330.731C1223.32 332.99 1222.8 335.428 1222.72 337.908C1222.64 340.388 1223.01 342.86 1223.81 345.184C1225.43 349.878 1228.69 353.681 1232.89 355.759C1234.97 356.787 1237.22 357.361 1239.5 357.447C1241.79 357.533 1244.06 357.13 1246.2 356.261C1265.53 348.409 1282.29 334.51 1294.34 316.32C1306.4 298.131 1313.21 276.468 1313.93 254.072C1314.65 231.675 1309.23 209.551 1298.37 190.497C1287.5 171.442 1271.68 156.314 1252.9 147.024C1234.12 137.735 1213.22 134.702 1192.85 138.308C1172.48 141.915 1153.55 151.999 1138.46 167.286C1123.37 182.573 1112.79 202.376 1108.07 224.191C1103.34 246.005 1104.68 268.852 1111.91 289.841C1112.71 292.164 1113.93 294.292 1115.49 296.106C1117.05 297.919 1118.92 299.381 1121 300.408C1123.08 301.435 1125.32 302.008 1127.6 302.093C1129.89 302.179 1132.16 301.775 1134.3 300.905C1136.44 300.035 1138.4 298.716 1140.07 297.023C1141.74 295.331 1143.09 293.298 1144.03 291.04C1144.98 288.782 1145.51 286.344 1145.59 283.865C1145.67 281.386 1145.29 278.915 1144.49 276.592C1141.27 267.306 1139.78 257.421 1140.1 247.505C1140.41 237.59 1142.53 227.84 1146.33 218.817V218.817Z" fill="url(#paint2_linear_679_571)" fill-opacity="0.5"/>
<path d="M176.992 768.031C203.563 775.762 231.648 774.768 257.698 765.174C283.749 755.58 306.595 737.816 323.351 714.127C340.106 690.439 350.019 661.889 351.836 632.085C353.653 602.281 347.293 572.561 333.559 546.681C331.257 542.34 330.637 537.184 331.836 532.347C333.034 527.509 335.954 523.387 339.952 520.887C343.949 518.387 348.698 517.714 353.153 519.015C357.608 520.317 361.404 523.487 363.707 527.828C375.119 549.281 382.52 572.969 385.486 597.534C388.452 622.099 386.925 647.058 380.992 670.98C356.132 771.724 260.77 831.506 167.99 804.512C75.209 777.518 20.1522 673.972 45.0127 573.228C50.8906 549.29 61.061 526.845 74.9413 507.182C88.8216 487.519 106.139 471.023 125.901 458.639C129.894 456.13 134.641 455.445 139.099 456.737C143.556 458.028 147.359 461.189 149.67 465.525C151.981 469.861 152.611 475.016 151.421 479.856C150.232 484.696 147.321 488.825 143.328 491.334C119.517 506.291 100.324 528.576 88.1731 555.373C76.0227 582.17 71.4606 612.277 75.0633 641.889C78.666 671.501 90.2719 699.288 108.414 721.74C126.557 744.192 150.421 760.301 176.992 768.031V768.031Z" fill="url(#paint3_linear_679_571)" fill-opacity="0.5"/>
<path d="M203.999 658.588C212.909 661.18 222.404 659.823 230.393 654.815C238.382 649.806 244.212 641.557 246.599 631.881C248.987 622.206 247.737 611.897 243.124 603.222C238.512 594.547 230.915 588.217 222.004 585.625C213.093 583.032 203.599 584.389 195.61 589.398C187.621 594.406 181.791 602.656 179.403 612.331C177.016 622.007 178.266 632.316 182.878 640.991C187.491 649.665 195.088 655.995 203.999 658.588Z" fill="url(#paint4_linear_679_571)" fill-opacity="0.5"/>
<path d="M280.198 641.659C277.239 653.66 271.6 664.683 263.781 673.751C255.961 682.82 246.202 689.655 235.368 693.649C224.534 697.644 212.96 698.676 201.672 696.653C190.383 694.63 179.728 689.616 170.651 682.053C161.574 674.49 154.355 664.614 149.633 653.298C144.911 641.982 142.833 629.576 143.582 617.179C144.331 604.783 147.884 592.778 153.927 582.229C159.969 571.679 168.315 562.911 178.225 556.701C180.204 555.461 181.938 553.809 183.329 551.841C184.72 549.872 185.741 547.625 186.332 545.228C186.924 542.832 187.075 540.332 186.776 537.872C186.478 535.412 185.736 533.04 184.594 530.891C182.286 526.551 178.486 523.384 174.028 522.087C171.82 521.445 169.518 521.281 167.253 521.605C164.987 521.929 162.802 522.734 160.823 523.975C142.949 535.179 128.537 551.887 119.408 571.986C110.279 592.085 106.845 614.671 109.538 636.89C112.232 659.108 120.933 679.96 134.54 696.809C148.148 713.658 166.052 725.747 185.987 731.547C205.923 737.347 226.995 736.598 246.538 729.394C266.081 722.19 283.218 708.856 295.782 691.077C308.346 673.297 315.772 651.872 317.121 629.51C318.471 607.148 313.682 584.853 303.363 565.446C302.22 563.298 300.698 561.416 298.886 559.907C297.073 558.398 295.004 557.291 292.797 556.65C290.591 556.009 288.289 555.846 286.024 556.17C283.76 556.495 281.576 557.301 279.598 558.542C277.62 559.783 275.887 561.435 274.497 563.403C273.107 565.371 272.088 567.618 271.497 570.014C270.907 572.41 270.757 574.909 271.056 577.368C271.355 579.827 272.097 582.198 273.24 584.346C277.822 592.929 280.797 602.411 281.991 612.248C283.185 622.084 282.576 632.079 280.198 641.659V641.659Z" fill="url(#paint5_linear_679_571)" fill-opacity="0.5"/>
<defs>
<linearGradient id="paint0_linear_679_571" x1="1281.73" y1="78.2792" x2="1138.59" y2="367.693" gradientUnits="userSpaceOnUse">
<stop stop-color="white"/>
<stop offset="1" stop-color="white" stop-opacity="0"/>
</linearGradient>
<linearGradient id="paint1_linear_679_571" x1="1224.06" y1="215.761" x2="1191.07" y2="282.451" gradientUnits="userSpaceOnUse">
<stop stop-color="white"/>
<stop offset="1" stop-color="white" stop-opacity="0"/>
</linearGradient>
<linearGradient id="paint2_linear_679_571" x1="1252.9" y1="147.024" x2="1166.02" y2="322.684" gradientUnits="userSpaceOnUse">
<stop stop-color="white"/>
<stop offset="1" stop-color="white" stop-opacity="0"/>
</linearGradient>
<linearGradient id="paint3_linear_679_571" x1="167.99" y1="804.512" x2="259.022" y2="491.628" gradientUnits="userSpaceOnUse">
<stop stop-color="white"/>
<stop offset="1" stop-color="white" stop-opacity="0"/>
</linearGradient>
<linearGradient id="paint4_linear_679_571" x1="203.999" y1="658.588" x2="224.976" y2="586.489" gradientUnits="userSpaceOnUse">
<stop stop-color="white"/>
<stop offset="1" stop-color="white" stop-opacity="0"/>
</linearGradient>
<linearGradient id="paint5_linear_679_571" x1="185.987" y1="731.547" x2="241.239" y2="541.642" gradientUnits="userSpaceOnUse">
<stop stop-color="white"/>
<stop offset="1" stop-color="white" stop-opacity="0"/>
</linearGradient>
</defs>
</svg>
