<svg width="26" height="26" viewBox="0 0 26 26" fill="none" xmlns="http://www.w3.org/2000/svg">
<path d="M19.5563 25.8959H6.45932C5.92235 25.8959 5.47705 25.4506 5.47705 24.9137C5.47705 24.3767 5.92235 23.9314 6.45932 23.9314H19.5563C20.0932 23.9314 20.5385 24.3767 20.5385 24.9137C20.5385 25.4506 20.0932 25.8959 19.5563 25.8959Z" fill="#B54FFF"/>
<path d="M23.9437 4.31217L18.7049 8.0579C18.0107 8.55558 17.0154 8.25435 16.7141 7.45544L14.2388 0.854576C13.8197 -0.284859 12.2088 -0.284859 11.7897 0.854576L9.30127 7.44234C9.00004 8.25435 8.01777 8.55558 7.32363 8.0448L2.08485 4.29907C1.03709 3.56564 -0.351182 4.6003 0.0810176 5.81832L5.52935 21.0763C5.71271 21.6001 6.21039 21.9407 6.76046 21.9407H19.2419C19.7919 21.9407 20.2896 21.587 20.473 21.0763L25.9213 5.81832C26.3666 4.6003 24.9783 3.56564 23.9437 4.31217ZM16.2819 16.4007H9.73347C9.19649 16.4007 8.7512 15.9554 8.7512 15.4184C8.7512 14.8814 9.19649 14.4361 9.73347 14.4361H16.2819C16.8189 14.4361 17.2642 14.8814 17.2642 15.4184C17.2642 15.9554 16.8189 16.4007 16.2819 16.4007Z" fill="#B54FFF"/>
</svg>
