<svg width="27" height="23" viewBox="0 0 27 23" fill="none" xmlns="http://www.w3.org/2000/svg">
<path d="M27.007 2.70397V15.6402C27.007 19.3672 23.9822 22.3919 20.2553 22.3919H6.75187C6.13071 22.3919 5.53656 22.3109 4.95591 22.1489C4.1187 21.9193 3.84863 20.8525 4.46979 20.2314L18.8239 5.87727C19.121 5.58019 19.5666 5.51267 19.9852 5.59369C20.4173 5.67471 20.8899 5.55318 21.2275 5.2291L24.6979 1.74522C25.9672 0.475904 27.007 0.894509 27.007 2.70397Z" fill="#00BBA6"/>
<path d="M17.0683 4.93212L2.93024 19.0702C2.28208 19.7183 1.2018 19.5563 0.769694 18.7461C0.270068 17.8279 0 16.7611 0 15.6403V2.70406C0 0.894601 1.03976 0.475995 2.30908 1.74532L5.79296 5.2427C6.31959 5.75583 7.18381 5.75583 7.71044 5.2427L12.5447 0.394975C13.0713 -0.131658 13.9355 -0.131658 14.4621 0.394975L17.0818 3.01464C17.5949 3.54127 17.5949 4.40549 17.0683 4.93212Z" fill="#00BBA6"/>
</svg>
