<svg width="61" height="61" viewBox="0 0 61 61" fill="none" xmlns="http://www.w3.org/2000/svg">
<g clip-path="url(#clip0_62_1028)">
<rect x="0.934082" y="0.5" width="60" height="60" rx="12" fill="#FFEAE5"/>
<g filter="url(#filter0_f_62_1028)">
<rect x="16.9341" y="25.5" width="27" height="27" rx="10" fill="#7D89FF" fill-opacity="0.2"/>
</g>
<g clip-path="url(#clip1_62_1028)">
<path d="M22.1341 40.1772C19.7155 40.1772 17.7473 42.2038 17.7473 44.6226V45.4999H24.7662L26.4322 43.6867C26.0246 41.6867 24.2526 40.1772 22.1341 40.1772Z" fill="#F29173"/>
<path d="M22.134 40.1773C20.1985 40.1773 18.6245 38.6033 18.6245 36.6679C18.6245 34.7322 20.1985 33.1584 22.134 33.1584C24.0696 33.1584 25.6434 34.7322 25.6434 36.6679C25.6434 38.6033 24.0696 40.1773 22.134 40.1773Z" fill="#F29173"/>
<path d="M39.6812 40.1772C37.5629 40.1772 35.7909 41.6867 35.3833 43.6867L37.0493 45.4999H44.0682V44.6226C44.0682 42.2038 42.1001 40.1772 39.6812 40.1772Z" fill="#F29173"/>
<path d="M39.6813 40.1773C37.7459 40.1773 36.1719 38.6033 36.1719 36.6679C36.1719 34.7322 37.7459 33.1584 39.6813 33.1584C41.617 33.1584 43.1908 34.7322 43.1908 36.6679C43.1908 38.6033 41.617 40.1773 39.6813 40.1773Z" fill="#F29173"/>
<path d="M36.2421 19.4365L32.5574 18.8925L30.9078 15.5L29.2583 18.8925L25.5735 19.4365L28.2406 22.0334L27.6089 25.6834L30.9078 23.9638L34.2067 25.6834L33.575 22.0334L36.2421 19.4365Z" fill="#FDBF00"/>
<path d="M43.6766 31.6573L40.383 29.9267L37.0912 31.6573L37.7202 27.991L35.0571 25.3951L38.7371 24.8604L40.3832 21.5249L42.0291 24.8604L45.8814 25.3951L43.046 27.991L43.6766 31.6573Z" fill="#F29173"/>
<path d="M24.7243 31.6573L21.4325 29.9267L18.1389 31.6573L18.7695 27.991L15.9341 25.3951L19.7864 24.8604L21.4323 21.5249L23.0784 24.8604L26.7584 25.3951L24.0953 27.991L24.7243 31.6573Z" fill="#FDBF00"/>
<path d="M30.9077 27.8943C28.4862 27.8943 26.521 29.8597 26.521 32.2813C26.521 34.7026 28.4862 36.668 30.9077 36.668C33.3293 36.668 35.2945 34.7026 35.2945 32.2813C35.2945 29.8597 33.3293 27.8943 30.9077 27.8943Z" fill="#7D89FF"/>
<path d="M30.9077 36.668C27.5212 36.668 24.7661 39.4228 24.7661 42.8096V45.5001H37.0493V42.8096C37.0493 39.4228 34.2942 36.668 30.9077 36.668Z" fill="#7D89FF"/>
<path d="M30.9077 36.668V27.8943C33.3293 27.8943 35.2945 29.8597 35.2945 32.2813C35.2945 34.7026 33.3293 36.668 30.9077 36.668Z" fill="#6B78F7"/>
<path d="M34.2066 25.6834L30.9077 23.9636V15.5L32.5573 18.8925L36.242 19.4365L33.5749 22.0334L34.2066 25.6834Z" fill="#F29173"/>
<path d="M37.0493 42.8096V45.5001H30.9077V36.668C34.2943 36.668 37.0493 39.4228 37.0493 42.8096Z" fill="#6B78F7"/>
</g>
</g>
<defs>
<filter id="filter0_f_62_1028" x="6.93408" y="15.5" width="47" height="47" filterUnits="userSpaceOnUse" color-interpolation-filters="sRGB">
<feFlood flood-opacity="0" result="BackgroundImageFix"/>
<feBlend mode="normal" in="SourceGraphic" in2="BackgroundImageFix" result="shape"/>
<feGaussianBlur stdDeviation="5" result="effect1_foregroundBlur_62_1028"/>
</filter>
<clipPath id="clip0_62_1028">
<rect x="0.934082" y="0.5" width="60" height="60" rx="12" fill="white"/>
</clipPath>
<clipPath id="clip1_62_1028">
<rect width="30" height="30" fill="white" transform="translate(15.9341 15.5)"/>
</clipPath>
</defs>
</svg>
