<svg width="34" height="36" viewBox="0 0 34 36" fill="none" xmlns="http://www.w3.org/2000/svg">
<path d="M23.5563 30.8959H10.4593C9.92235 30.8959 9.47705 30.4506 9.47705 29.9137C9.47705 29.3767 9.92235 28.9314 10.4593 28.9314H23.5563C24.0932 28.9314 24.5385 29.3767 24.5385 29.9137C24.5385 30.4506 24.0932 30.8959 23.5563 30.8959Z" fill="#B54FFF"/>
<path d="M27.9437 9.31217L22.7049 13.0579C22.0107 13.5556 21.0154 13.2544 20.7141 12.4554L18.2388 5.85458C17.8197 4.71514 16.2088 4.71514 15.7897 5.85458L13.3013 12.4423C13 13.2544 12.0178 13.5556 11.3236 13.0448L6.08485 9.29907C5.03709 8.56564 3.64882 9.6003 4.08102 10.8183L9.52935 26.0763C9.71271 26.6001 10.2104 26.9407 10.7605 26.9407H23.2419C23.7919 26.9407 24.2896 26.587 24.473 26.0763L29.9213 10.8183C30.3666 9.6003 28.9783 8.56564 27.9437 9.31217ZM20.2819 21.4007H13.7335C13.1965 21.4007 12.7512 20.9554 12.7512 20.4184C12.7512 19.8814 13.1965 19.4361 13.7335 19.4361H20.2819C20.8189 19.4361 21.2642 19.8814 21.2642 20.4184C21.2642 20.9554 20.8189 21.4007 20.2819 21.4007Z" fill="#B54FFF"/>
</svg>
