<svg width="61" height="61" viewBox="0 0 61 61" fill="none" xmlns="http://www.w3.org/2000/svg">
<g clip-path="url(#clip0_62_1015)">
<rect x="0.934082" y="0.5" width="60" height="60" rx="12" fill="#FFEAE5"/>
<g filter="url(#filter0_f_62_1015)">
<rect x="16.9341" y="25.5" width="27" height="27" rx="10" fill="#00AA63" fill-opacity="0.25"/>
</g>
<g clip-path="url(#clip1_62_1015)">
<path d="M42.4171 35.5338C41.6107 37.7192 40.3913 39.6193 38.7921 41.181C36.9718 42.9585 34.5882 44.3709 31.7075 45.3785C31.6129 45.4114 31.5143 45.4384 31.4152 45.4584C31.2843 45.4842 31.1511 45.4982 31.019 45.5H30.9931C30.8524 45.5 30.7109 45.4858 30.5706 45.4584C30.4715 45.4384 30.3742 45.4114 30.2802 45.3792C27.396 44.3732 25.0095 42.9615 23.1873 41.184C21.5875 39.6223 20.3682 37.7233 19.563 35.5379C18.0988 31.5645 18.1822 27.1874 18.2492 23.6699L18.2504 23.6159C18.2639 23.3255 18.2726 23.0204 18.2774 22.6834C18.3019 21.0293 19.617 19.6608 21.2714 19.5686C24.7206 19.3761 27.3889 18.2511 29.6688 16.0289L29.6887 16.0106C30.0673 15.6634 30.5443 15.4931 31.019 15.5002C31.4768 15.5062 31.9327 15.6762 32.2978 16.0106L32.3172 16.0289C34.5976 18.2511 37.2659 19.3761 40.7151 19.5686C42.3695 19.6608 43.6846 21.0293 43.7091 22.6834C43.7139 23.0226 43.7226 23.3273 43.7361 23.6159L43.7368 23.6388C43.8037 27.1629 43.8865 31.5487 42.4171 35.5338Z" fill="#00DD80"/>
<path d="M42.4169 35.5338C41.6106 37.7192 40.3911 39.6194 38.7919 41.181C36.9716 42.9585 34.588 44.371 31.7073 45.3785C31.6127 45.4115 31.5141 45.4385 31.415 45.4584C31.2841 45.4842 31.1509 45.4982 31.0188 45.5V15.5002C31.4766 15.5062 31.9325 15.6763 32.2976 16.0107L32.317 16.029C34.5974 18.2512 37.2657 19.3761 40.7149 19.5686C42.3693 19.6609 43.6845 21.0293 43.7089 22.6835C43.7137 23.0227 43.7224 23.3273 43.736 23.6159L43.7366 23.6388C43.8035 27.1629 43.8863 31.5488 42.4169 35.5338Z" fill="#00AA63"/>
<path d="M38.4692 30.5001C38.4692 34.6138 35.1291 37.9624 31.0188 37.977H30.9925C26.8701 37.977 23.5156 34.6227 23.5156 30.5001C23.5156 26.3777 26.8701 23.0234 30.9925 23.0234H31.0188C35.1291 23.0381 38.4692 26.3866 38.4692 30.5001Z" fill="white"/>
<path d="M38.4692 30.5001C38.4692 34.6138 35.1291 37.9624 31.0188 37.977V23.0234C35.1291 23.0381 38.4692 26.3866 38.4692 30.5001Z" fill="#E1EBF0"/>
<path d="M34.3861 29.4233L31.0188 32.7911L30.2912 33.5187C30.1193 33.6906 29.8939 33.7764 29.6687 33.7764C29.4432 33.7764 29.218 33.6906 29.0459 33.5187L27.4815 31.9536C27.1377 31.6098 27.1377 31.053 27.4815 30.7089C27.8248 30.3652 28.3823 30.3652 28.7261 30.7089L29.6687 31.6515L33.1415 28.1787C33.4853 27.8347 34.0428 27.8347 34.3861 28.1787C34.7299 28.5224 34.7299 29.08 34.3861 29.4233Z" fill="#B4D2D7"/>
<path d="M34.3861 29.4233L31.0188 32.7911V30.3011L33.1414 28.1787C33.4852 27.8347 34.0428 27.8347 34.3861 28.1787C34.7299 28.5224 34.7299 29.08 34.3861 29.4233Z" fill="#6FA5AA"/>
</g>
</g>
<defs>
<filter id="filter0_f_62_1015" x="6.93408" y="15.5" width="47" height="47" filterUnits="userSpaceOnUse" color-interpolation-filters="sRGB">
<feFlood flood-opacity="0" result="BackgroundImageFix"/>
<feBlend mode="normal" in="SourceGraphic" in2="BackgroundImageFix" result="shape"/>
<feGaussianBlur stdDeviation="5" result="effect1_foregroundBlur_62_1015"/>
</filter>
<clipPath id="clip0_62_1015">
<rect x="0.934082" y="0.5" width="60" height="60" rx="12" fill="white"/>
</clipPath>
<clipPath id="clip1_62_1015">
<rect width="30" height="30" fill="white" transform="translate(15.9341 15.5)"/>
</clipPath>
</defs>
</svg>
