<svg width="40" height="40" viewBox="0 0 40 40" fill="none" xmlns="http://www.w3.org/2000/svg">
<path opacity="0.4" d="M35.6166 18.9833V28.9667C35.6166 33.5667 31.8833 37.3 27.2833 37.3H12.7166C8.11663 37.3 4.3833 33.5667 4.3833 28.9667V19.1C5.64997 20.4667 7.44997 21.25 9.39997 21.25C11.5 21.25 13.5166 20.2 14.7833 18.5167C15.9166 20.2 17.85 21.25 20 21.25C22.1333 21.25 24.0333 20.25 25.1833 18.5833C26.4666 20.2333 28.45 21.25 30.5166 21.25C32.5333 21.25 34.3666 20.4333 35.6166 18.9833Z" fill="#593FFB"/>
<path d="M24.9832 2.08331H14.9832L13.7499 14.35C13.6499 15.4833 13.8166 16.55 14.2332 17.5166C15.1999 19.7833 17.4666 21.25 19.9999 21.25C22.5666 21.25 24.7833 19.8166 25.7833 17.5333C26.0833 16.8166 26.2666 15.9833 26.2833 15.1333V14.8166L24.9832 2.08331Z" fill="#593FFB"/>
<path opacity="0.6" d="M37.2666 13.7833L36.7833 9.16665C36.0833 4.13331 33.7999 2.08331 28.9166 2.08331H22.5166L23.7499 14.5833C23.7666 14.75 23.7833 14.9333 23.7833 15.25C23.8833 16.1166 24.1499 16.9166 24.5499 17.6333C25.7499 19.8333 28.0833 21.25 30.5166 21.25C32.7333 21.25 34.7333 20.2666 35.9833 18.5333C36.9833 17.2 37.4333 15.5166 37.2666 13.7833Z" fill="#593FFB"/>
<path opacity="0.6" d="M10.9832 2.08331C6.08324 2.08331 3.81657 4.13331 3.0999 9.21665L2.6499 13.8C2.48324 15.5833 2.96657 17.3166 4.01657 18.6666C5.28324 20.3166 7.23324 21.25 9.39991 21.25C11.8332 21.25 14.1666 19.8333 15.3499 17.6666C15.7832 16.9166 16.0666 16.05 16.1499 15.15L17.4499 2.09998H10.9832V2.08331Z" fill="#593FFB"/>
<path d="M18.9166 27.7667C16.8 27.9834 15.2 29.7834 15.2 31.9167V37.3H24.7833V32.5C24.7999 29.0167 22.7499 27.3667 18.9166 27.7667Z" fill="#593FFB"/>
</svg>
