<svg width="70" height="71" viewBox="0 0 70 71" fill="none" xmlns="http://www.w3.org/2000/svg">
<rect y="0.805908" width="70" height="70" rx="10" fill="#FFEAE5"/>
<g clip-path="url(#clip0_62_963)">
<path d="M26.9854 39.5752H21.2139C20.2764 39.5752 19.5164 40.3352 19.5164 41.2728V54.1082C19.5164 55.0458 20.2764 55.8058 21.2139 55.8058H26.9853C27.9229 55.8058 28.6829 55.0458 28.6829 54.1082V41.2728C28.6829 40.3352 27.9229 39.5752 26.9854 39.5752Z" fill="#FFDC4A"/>
<path d="M21.9309 54.1082V41.2728C21.9309 40.3353 22.6909 39.5752 23.6285 39.5752H21.2139C20.2764 39.5752 19.5164 40.3352 19.5164 41.2728V54.1083C19.5164 55.0459 20.2764 55.8059 21.2139 55.8059H23.6284C22.6909 55.8058 21.9309 55.0458 21.9309 54.1082Z" fill="#EDCA3A"/>
<path d="M39.4316 33.6886H33.6602C32.7226 33.6886 31.9626 34.4486 31.9626 35.3862V54.1084C31.9626 55.046 32.7226 55.806 33.6602 55.806H39.4316C40.3692 55.806 41.1292 55.046 41.1292 54.1084V35.3861C41.1292 34.4486 40.3692 33.6886 39.4316 33.6886Z" fill="#F29173"/>
<path d="M34.3771 54.1083V35.3861C34.3771 34.4485 35.1371 33.6885 36.0747 33.6885H33.6602C32.7226 33.6885 31.9626 34.4485 31.9626 35.3861V54.1083C31.9626 55.0459 32.7226 55.8059 33.6602 55.8059H36.0747C35.1371 55.8059 34.3771 55.0459 34.3771 54.1083Z" fill="#D82A2B"/>
<path d="M51.8779 27.8018H46.1065C45.1689 27.8018 44.4089 28.5618 44.4089 29.4993V54.1083C44.4089 55.0458 45.1689 55.8058 46.1065 55.8058H51.8779C52.8155 55.8058 53.5755 55.0458 53.5755 54.1083V29.4993C53.5754 28.5618 52.8154 27.8018 51.8779 27.8018Z" fill="#3CDCF9"/>
<path d="M46.8234 54.1083V29.4993C46.8234 28.5618 47.5834 27.8018 48.521 27.8018H46.1065C45.1689 27.8018 44.4089 28.5618 44.4089 29.4993V54.1083C44.4089 55.0458 45.1689 55.8058 46.1065 55.8058H48.521C47.5834 55.8058 46.8234 55.0458 46.8234 54.1083Z" fill="#30CBE8"/>
<path d="M53.4842 15.8133L47.6539 16.5731L49.0632 18.4581L44.0702 22.1913L41.4439 19.8757C40.996 19.4808 40.3326 19.4542 39.8543 19.8117L28.6876 28.1604L26.0753 26.2035C25.6274 25.8679 25.0119 25.8677 24.5637 26.2028L15.5654 32.9305L17.0761 34.9512L25.3183 28.7887L27.9306 30.7456C28.3785 31.0812 28.994 31.0815 29.4422 30.7463L40.5441 22.4458L43.1704 24.7613C43.6183 25.1563 44.2818 25.183 44.76 24.8254L50.5738 20.4786L51.9844 22.3652L54.3615 16.9863C54.6264 16.3871 54.1339 15.7286 53.4842 15.8133Z" fill="#2DC580"/>
</g>
<defs>
<clipPath id="clip0_62_963">
<rect width="40" height="40" fill="white" transform="translate(15 15.8059)"/>
</clipPath>
</defs>
</svg>
