<svg width="30" height="31" viewBox="0 0 30 31" fill="none" xmlns="http://www.w3.org/2000/svg">
<g clip-path="url(#clip0_62_1709)">
<g clip-path="url(#clip1_62_1709)">
<path d="M14.9996 0.865234C6.71117 0.865234 -0.0332031 7.60773 -0.0332031 15.8971C-0.0332031 24.1865 6.71117 30.929 14.9996 30.929C23.288 30.929 30.0324 24.1865 30.0324 15.8971C30.0324 7.60773 23.288 0.865234 14.9996 0.865234ZM14.9996 29.9277C7.26336 29.9277 0.969922 23.6334 0.969922 15.8971C0.969922 8.16086 7.26336 1.86648 14.9996 1.86648C22.7359 1.86648 29.0293 8.16086 29.0293 15.8971C29.0293 23.6334 22.7359 29.9277 14.9996 29.9277Z" fill="#FB8F75"/>
<path d="M23.2429 11.2527C23.3469 11.0602 23.4326 10.8584 23.4989 10.6499C23.5295 10.5532 23.5302 10.4495 23.5006 10.3524C23.4711 10.2553 23.4129 10.1695 23.3335 10.1062C23.2542 10.0429 23.1576 10.0052 23.0564 9.998C22.9552 9.9908 22.8542 10.0145 22.7667 10.0659C22.2863 10.3512 21.7663 10.5639 21.2236 10.6968C20.5647 10.1022 19.7091 9.77259 18.8217 9.77148C18.3395 9.77185 17.8624 9.86958 17.419 10.0588C16.9755 10.248 16.5748 10.5248 16.2409 10.8726C15.907 11.2204 15.6468 11.6321 15.4759 12.0829C15.3049 12.5337 15.2267 13.0144 15.2461 13.4962C13.1376 13.2307 11.2123 12.1638 9.8695 10.5168C9.81805 10.4544 9.7523 10.4053 9.67783 10.3738C9.60337 10.3422 9.52238 10.3291 9.44177 10.3356C9.36115 10.342 9.28328 10.3678 9.21477 10.4108C9.14626 10.4538 9.08913 10.5126 9.04825 10.5824C8.74077 11.1102 8.57364 11.7079 8.56281 12.3186C8.55198 12.9293 8.6978 13.5325 8.98637 14.0709C8.9156 14.0828 8.84761 14.1076 8.78575 14.144C8.70995 14.1923 8.64754 14.259 8.60428 14.3378C8.56103 14.4166 8.53832 14.505 8.53825 14.5949C8.53825 15.659 9.01168 16.6359 9.77481 17.2996L9.742 17.3324C9.68438 17.3976 9.64475 17.4767 9.62699 17.5618C9.60924 17.647 9.61398 17.7353 9.64075 17.818C9.79988 18.3145 10.0656 18.7701 10.4193 19.1531C10.7729 19.5361 11.206 19.8372 11.6882 20.0352C10.6979 20.5184 9.58952 20.7068 8.49512 20.578C8.38263 20.5666 8.26951 20.5928 8.17348 20.6525C8.07746 20.7122 8.00396 20.8021 7.9645 20.908C7.9266 21.0148 7.92589 21.1312 7.96248 21.2384C7.99907 21.3457 8.07081 21.4374 8.16606 21.4987C9.65388 22.4536 11.3847 22.9609 13.1526 22.9602C18.9464 22.9602 22.4095 18.254 22.4095 13.7043L22.4086 13.5505C22.9701 13.1122 23.4578 12.5868 23.8532 11.9943C23.9131 11.9047 23.9426 11.7983 23.9372 11.6906C23.9319 11.583 23.892 11.48 23.8236 11.3968C23.7551 11.3136 23.6616 11.2547 23.5571 11.2287C23.4525 11.2028 23.3424 11.2112 23.2429 11.2527ZM21.607 12.898C21.539 12.947 21.4843 13.0122 21.4479 13.0876C21.4116 13.1631 21.3947 13.2465 21.3989 13.3302C21.4045 13.454 21.4073 13.5796 21.4073 13.7034C21.4073 17.7609 18.3201 21.958 13.1536 21.958C12.2321 21.9585 11.3171 21.8038 10.447 21.5005C11.4891 21.3008 12.4681 20.8539 13.3017 20.1974C13.3828 20.1334 13.4422 20.046 13.4718 19.9469C13.5013 19.8479 13.4995 19.7422 13.4667 19.6442C13.4339 19.5462 13.3716 19.4608 13.2884 19.3995C13.2051 19.3383 13.105 19.3043 13.0017 19.3021C12.5975 19.2944 12.2007 19.1918 11.8434 19.0026C11.4861 18.8133 11.1783 18.5428 10.9448 18.2127C11.182 18.1968 11.4145 18.1574 11.6404 18.0965C11.7498 18.0672 11.846 18.0018 11.9133 17.9108C11.9807 17.8198 12.0152 17.7087 12.0113 17.5956C12.0074 17.4824 11.9653 17.374 11.8918 17.2879C11.8183 17.2018 11.7178 17.1431 11.6067 17.1215C11.1501 17.0286 10.7274 16.8134 10.3838 16.4988C10.0401 16.1842 9.78849 15.7821 9.65575 15.3355C9.90512 15.3984 10.1611 15.4349 10.417 15.4434C10.6373 15.4424 10.8417 15.3074 10.9101 15.0955C10.9786 14.8837 10.8979 14.6502 10.7114 14.5265C10.2703 14.2326 9.93061 13.8097 9.73882 13.3155C9.54703 12.8214 9.51246 12.2801 9.63981 11.7655C11.2683 13.4365 13.4672 14.4315 15.7973 14.5518C15.9623 14.5527 16.1067 14.4937 16.207 14.3727C16.3073 14.2518 16.3457 14.0915 16.3101 13.9377C16.1819 13.3855 16.2393 12.8065 16.4733 12.2902C16.7073 11.7739 17.105 11.3491 17.6048 11.0816C18.1046 10.8141 18.6786 10.7188 19.2381 10.8104C19.7975 10.902 20.3111 11.1754 20.6995 11.5884C20.7577 11.6505 20.8308 11.6967 20.9118 11.7228C20.9928 11.7489 21.0791 11.7539 21.1626 11.7374C21.3173 11.7065 21.4701 11.6709 21.6211 11.6296C21.553 11.6805 21.4823 11.7278 21.4092 11.7712C21.312 11.8307 21.2379 11.9216 21.1993 12.0289C21.1607 12.1361 21.1597 12.2534 21.1966 12.3612C21.2335 12.4691 21.3061 12.5612 21.4023 12.6223C21.4985 12.6834 21.6127 12.7099 21.7261 12.6974L21.8967 12.6759C21.8027 12.7533 21.7061 12.8274 21.607 12.898Z" fill="#FB8F75"/>
<path d="M13 19.897C13.4 20.697 11.0005 21.2303 10.0005 21.397C14.0001 23.397 18.5002 20.5636 20.0005 18.897V18.397C21.6005 17.597 21.6671 14.7303 21.5005 13.397L22.5005 12.897L22.0005 11.897L21.5005 11.397L18.5005 10.397L17.5005 10.897L16.5005 11.897L16.0005 12.897V14.397C13.6005 14.797 10.6668 12.5636 9.5 11.397C8.7 12.197 9.5 13.7303 10 14.397L9.5 14.897V15.897C10.1667 16.397 10.9005 17.497 10.5005 17.897C10.1005 18.297 12.1667 19.397 13 19.897Z" fill="#FB8F75"/>
</g>
</g>
<defs>
<clipPath id="clip0_62_1709">
<rect width="30" height="30" fill="white" transform="translate(0 0.896973)"/>
</clipPath>
<clipPath id="clip1_62_1709">
<rect width="30" height="30" fill="white" transform="translate(0 0.896973)"/>
</clipPath>
</defs>
</svg>
