<svg width="31" height="31" viewBox="0 0 31 31" fill="none" xmlns="http://www.w3.org/2000/svg">
<path opacity="0.4" d="M13.4584 3.97418C14.3223 3.23554 15.7369 3.23554 16.6133 3.97418L18.5914 5.67681C18.9669 6.00231 19.668 6.26522 20.1688 6.26522H22.2971C23.6241 6.26522 24.7133 7.3544 24.7133 8.68145V10.8097C24.7133 11.298 24.9762 12.0116 25.3017 12.3872L27.0044 14.3652C27.743 15.2291 27.743 16.6438 27.0044 17.5201L25.3017 19.4982C24.9762 19.8738 24.7133 20.5748 24.7133 21.0756V23.2039C24.7133 24.531 23.6241 25.6201 22.2971 25.6201H20.1688C19.6805 25.6201 18.9669 25.883 18.5914 26.2085L16.6133 27.9112C15.7495 28.6498 14.3348 28.6498 13.4584 27.9112L11.4804 26.2085C11.1048 25.883 10.4037 25.6201 9.90293 25.6201H7.73708C6.41003 25.6201 5.32085 24.531 5.32085 23.2039V21.0631C5.32085 20.5748 5.05794 19.8738 4.74496 19.4982L3.05485 17.5076C2.32872 16.6438 2.32872 15.2416 3.05485 14.3778L4.74496 12.3872C5.05794 12.0116 5.32085 11.3105 5.32085 10.8223V8.66893C5.32085 7.34188 6.41003 6.2527 7.73708 6.2527H9.90293C10.3912 6.2527 11.1048 5.98979 11.4804 5.66429L13.4584 3.97418Z" fill="#F29173"/>
<path d="M13.5085 19.8988C13.2581 19.8988 13.0202 19.7986 12.8449 19.6233L9.81526 16.5937C9.4522 16.2306 9.4522 15.6297 9.81526 15.2666C10.1783 14.9035 10.7793 14.9035 11.1423 15.2666L13.5085 17.6328L18.8918 12.2494C19.2549 11.8864 19.8558 11.8864 20.2188 12.2494C20.5819 12.6125 20.5819 13.2134 20.2188 13.5765L14.172 19.6233C13.9967 19.7986 13.7589 19.8988 13.5085 19.8988Z" fill="#F29173"/>
</svg>
